<svg width="0" height="0" class="hidden">
  <symbol version="1.1" xmlns="http://www.w3.org/2000/svg" viewBox="0 0 512 512" id="instagram_733614">
    <path d="M0 0 C2.22120419 -0.00407455 4.44240635 -0.00942134 6.66360474 -0.01593018 C12.64707113 -0.02950454 18.63038081 -0.02434624 24.61384964 -0.01479292 C30.90524945 -0.00714476 37.19663672 -0.01425615 43.48803711 -0.01895142 C54.72354992 -0.02474166 65.95899876 -0.01547694 77.19449651 -0.0001734 C87.34617064 0.01322666 97.49774179 0.0108976 107.64941406 -0.00292969 C119.48713284 -0.01904634 131.32480191 -0.02492739 143.16253376 -0.0160929 C149.41094239 -0.01143978 155.65928037 -0.01072604 161.90768433 -0.02070236 C167.7847886 -0.0294321 173.66170033 -0.02324136 179.53878403 -0.00601959 C181.68280596 -0.00208663 183.82684438 -0.00313331 185.97085953 -0.00980759 C202.23365735 -0.05572714 217.3133275 1.53585131 232.97265625 6.13818359 C233.85268311 6.39494873 234.73270996 6.65171387 235.6394043 6.91625977 C243.89542652 9.40526819 251.7043811 12.527437 259.41015625 16.38818359 C260.05758789 16.71125488 260.70501953 17.03432617 261.37207031 17.3671875 C297.02852755 35.51142608 326.61894799 68.57948609 339.19091797 106.75927734 C340.02292721 109.39840866 340.81880337 112.04539365 341.59765625 114.70068359 C341.9548877 115.90785034 341.9548877 115.90785034 342.31933594 117.1394043 C346.79841421 133.13813164 347.84981713 148.44168641 347.79833984 164.97802734 C347.80241439 167.19923153 347.80776119 169.42043369 347.81427002 171.64163208 C347.82784438 177.62509847 347.82268609 183.60840816 347.81313276 189.59187698 C347.8054846 195.88327679 347.81259599 202.17466406 347.81729126 208.46606445 C347.82308151 219.70157727 347.81381679 230.93702611 347.79851325 242.17252386 C347.78511318 252.32419798 347.78744224 262.47576913 347.80126953 272.62744141 C347.81738618 284.46516019 347.82326723 296.30282925 347.81443274 308.1405611 C347.80977962 314.38896973 347.80906588 320.63730771 347.81904221 326.88571167 C347.82777195 332.76281595 347.8215812 338.63972767 347.80435944 344.51681137 C347.80042647 346.6608333 347.80147316 348.80487172 347.80814743 350.94888687 C347.85406698 367.21168469 346.26248854 382.29135485 341.66015625 397.95068359 C341.40339111 398.83071045 341.14662598 399.7107373 340.88208008 400.61743164 C338.39307165 408.87345387 335.27090285 416.68240845 331.41015625 424.38818359 C331.08708496 425.03561523 330.76401367 425.68304688 330.43115234 426.35009766 C312.28691376 462.00655489 279.21885375 491.59697533 241.0390625 504.16894531 C238.39993119 505.00095456 235.75294619 505.79683071 233.09765625 506.57568359 C232.29287842 506.81383789 231.48810059 507.05199219 230.65893555 507.29736328 C214.66020821 511.77644155 199.35665343 512.82784447 182.8203125 512.77636719 C180.59910831 512.78044173 178.37790615 512.78578853 176.15670776 512.79229736 C170.17324137 512.80587172 164.18993169 512.80071343 158.20646286 512.79116011 C151.91506305 512.78351195 145.62367578 512.79062334 139.33227539 512.7953186 C128.09676258 512.80110885 116.86131374 512.79184413 105.62581599 512.77654059 C95.47414186 512.76314052 85.32257071 512.76546958 75.17089844 512.77929688 C63.33317966 512.79541353 51.49551059 512.80129458 39.65777874 512.79246008 C33.40937011 512.78780697 27.16103213 512.78709323 20.91262817 512.79706955 C15.0355239 512.80579929 9.15861217 512.79960855 3.28152847 512.78238678 C1.13750654 512.77845381 -1.00653188 512.7795005 -3.15054703 512.78617477 C-19.41334485 512.83209433 -34.493015 511.24051588 -50.15234375 506.63818359 C-51.03237061 506.38141846 -51.91239746 506.12465332 -52.8190918 505.86010742 C-61.07511402 503.371099 -68.8840686 500.24893019 -76.58984375 496.38818359 C-77.56099121 495.90357666 -77.56099121 495.90357666 -78.55175781 495.40917969 C-114.20821505 477.26494111 -143.79863549 444.1968811 -156.37060547 406.01708984 C-157.20261471 403.37795853 -157.99849087 400.73097354 -158.77734375 398.07568359 C-159.01549805 397.27090576 -159.25365234 396.46612793 -159.49902344 395.63696289 C-163.97810171 379.63823555 -165.02950463 364.33468077 -164.97802734 347.79833984 C-164.98210189 345.57713565 -164.98744869 343.3559335 -164.99395752 341.13473511 C-165.00753188 335.15126871 -165.00237359 329.16795903 -164.99282026 323.1844902 C-164.9851721 316.8930904 -164.99228349 310.60170312 -164.99697876 304.31030273 C-165.00276901 293.07478992 -164.99350429 281.83934108 -164.97820075 270.60384333 C-164.96480068 260.4521692 -164.96712974 250.30059805 -164.98095703 240.14892578 C-164.99707368 228.311207 -165.00295473 216.47353794 -164.99412024 204.63580608 C-164.98946712 198.38739746 -164.98875338 192.13905948 -164.99872971 185.89065552 C-165.00745945 180.01355124 -165.0012687 174.13663951 -164.98404694 168.25955582 C-164.98011397 166.11553389 -164.98116066 163.97149547 -164.98783493 161.82748032 C-165.03375448 145.56468249 -163.44217604 130.48501234 -158.83984375 114.82568359 C-158.58307861 113.94565674 -158.32631348 113.06562988 -158.06176758 112.15893555 C-155.57275915 103.90291332 -152.45059035 96.09395874 -148.58984375 88.38818359 C-148.10523682 87.41703613 -148.10523682 87.41703613 -147.61083984 86.42626953 C-129.46660126 50.76981229 -96.39854125 21.17939185 -58.21875 8.60742188 C-55.57961869 7.77541263 -52.93263369 6.97953647 -50.27734375 6.20068359 C-49.47256592 5.9625293 -48.66778809 5.724375 -47.83862305 5.47900391 C-31.83989571 0.99992563 -16.53634093 -0.05147728 0 0 Z M-88.27734375 86.13818359 C-111.69146685 113.29684476 -116.74638933 144.56848324 -116.73510742 179.28515625 C-116.73810647 181.14637315 -116.7415107 183.00758944 -116.74528503 184.86880493 C-116.75405386 189.88569106 -116.75646014 194.90256009 -116.75710082 199.91945314 C-116.75781544 203.06518382 -116.75995751 206.21091025 -116.76259804 209.35663986 C-116.77182829 220.36341372 -116.77593589 231.37017553 -116.77514648 242.37695312 C-116.77454649 252.58449847 -116.7850889 262.79199085 -116.80089015 272.99952281 C-116.81403071 281.80684136 -116.81932766 290.61414274 -116.81869107 299.421471 C-116.81843798 304.66229266 -116.821184 309.90306717 -116.83186913 315.14387894 C-116.84166045 320.08030189 -116.84155501 325.01663369 -116.83435249 329.95306015 C-116.83332017 331.74751165 -116.83558724 333.54196918 -116.84171295 335.33641052 C-116.96479573 373.94395752 -108.58538062 405.69945892 -81.1953125 433.84912109 C-54.34768541 459.22747506 -21.20572709 464.54498791 14.30712891 464.53344727 C16.16834581 464.53644632 18.0295621 464.53985054 19.89077759 464.54362488 C24.90766372 464.55239371 29.92453275 464.55479998 34.9414258 464.55544066 C38.08715647 464.55615528 41.23288291 464.55829735 44.37861252 464.56093788 C55.38538637 464.57016814 66.39214818 464.57427573 77.39892578 464.57348633 C87.60647113 464.57288634 97.8139635 464.58342874 108.02149546 464.59922999 C116.82881402 464.61237055 125.63611539 464.6176675 134.44344366 464.61703092 C139.68426532 464.61677782 144.92503983 464.61952385 150.16585159 464.63020897 C155.10227455 464.64000029 160.03860634 464.63989485 164.97503281 464.63269234 C166.76948431 464.63166001 168.56394183 464.63392709 170.35838318 464.6400528 C208.96593018 464.76313558 240.72143157 456.38372046 268.87109375 428.99365234 C294.24944771 402.14602526 299.56696056 369.00406694 299.55541992 333.49121094 C299.55841897 331.62999403 299.5618232 329.76877775 299.56559753 327.90756226 C299.57436636 322.89067613 299.57677264 317.8738071 299.57741332 312.85691404 C299.57812794 309.71118337 299.58027001 306.56545694 299.58291054 303.41972733 C299.59214079 292.41295347 299.59624839 281.40619166 299.59545898 270.39941406 C299.59485899 260.19186871 299.6054014 249.98437634 299.62120265 239.77684438 C299.63434321 230.96952583 299.63964016 222.16222445 299.63900357 213.35489619 C299.63875048 208.11407453 299.6414965 202.87330001 299.65218163 197.63248825 C299.66197295 192.69606529 299.66186751 187.7597335 299.65466499 182.82330704 C299.65363267 181.02885553 299.65589974 179.23439801 299.66202545 177.43995667 C299.78510823 138.83240966 291.40569312 107.07690827 264.015625 78.92724609 C237.16799791 53.54889213 204.02603959 48.23137928 168.51318359 48.24291992 C166.65196669 48.23992087 164.7907504 48.23651665 162.92953491 48.23274231 C157.91264878 48.22397348 152.89577975 48.22156721 147.8788867 48.22092652 C144.73315603 48.2202119 141.58742959 48.21806983 138.44169998 48.21542931 C127.43492613 48.20619905 116.42816432 48.20209146 105.42138672 48.20288086 C95.21384137 48.20348085 85.006349 48.19293844 74.79881704 48.1771372 C65.99149848 48.16399664 57.18419711 48.15869969 48.37686884 48.15933627 C43.13604718 48.15958937 37.89527267 48.15684334 32.65446091 48.14615822 C27.71803795 48.13636689 22.78170616 48.13647233 17.84527969 48.14367485 C16.05082819 48.14470718 14.25637067 48.1424401 12.46192932 48.13631439 C-26.88615675 48.01087073 -60.56889532 56.82556183 -88.27734375 86.13818359 Z " fill="#000000" transform="translate(164.58984375,-0.38818359375)"></path>
    <path d="M0 0 C1.01247803 0.27408691 1.01247803 0.27408691 2.04541016 0.55371094 C32.31829414 8.88268602 61.01342228 28.59651721 77 56 C77.40943848 56.69963867 77.81887695 57.39927734 78.24072266 58.12011719 C84.66997596 69.30121891 89.58876157 80.56227976 93 93 C93.50853516 94.76150391 93.50853516 94.76150391 94.02734375 96.55859375 C98.38980524 114.9130976 98.21629674 138.90223765 93 157 C92.81727539 157.67498535 92.63455078 158.3499707 92.44628906 159.04541016 C84.11731398 189.31829414 64.40348279 218.01342228 37 234 C36.30036133 234.40943848 35.60072266 234.81887695 34.87988281 235.24072266 C23.69878109 241.66997596 12.43772024 246.58876157 0 250 C-1.17433594 250.33902344 -2.34867188 250.67804688 -3.55859375 251.02734375 C-21.9130976 255.38980524 -45.90223765 255.21629674 -64 250 C-64.67498535 249.81727539 -65.3499707 249.63455078 -66.04541016 249.44628906 C-96.31829414 241.11731398 -125.01342228 221.40348279 -141 194 C-141.40943848 193.30036133 -141.81887695 192.60072266 -142.24072266 191.87988281 C-148.66997596 180.69878109 -153.58876157 169.43772024 -157 157 C-157.33902344 155.82566406 -157.67804688 154.65132812 -158.02734375 153.44140625 C-162.38980524 135.0869024 -162.21629674 111.09776235 -157 93 C-156.72591309 91.98752197 -156.72591309 91.98752197 -156.44628906 90.95458984 C-148.11731398 60.68170586 -128.40348279 31.98657772 -101 16 C-99.95054199 15.38584229 -99.95054199 15.38584229 -98.87988281 14.75927734 C-87.69878109 8.33002404 -76.43772024 3.41123843 -64 0 C-62.82566406 -0.33902344 -61.65132813 -0.67804688 -60.44140625 -1.02734375 C-42.0869024 -5.38980524 -18.09776235 -5.21629674 0 0 Z M-84 65 C-84.969375 65.77472656 -85.93875 66.54945313 -86.9375 67.34765625 C-99.71811013 78.02084664 -109.26935894 96.51690407 -111 113 C-112.55107627 137.02621559 -108.16024352 158.47927148 -92 177 C-90.84177734 178.45212891 -90.84177734 178.45212891 -89.66015625 179.93359375 C-78.91563441 192.80524461 -60.48428032 201.86994977 -44 204 C-21.28822587 205.83736604 0.16615797 201.6556812 18.0078125 186.73828125 C18.66523438 186.16464844 19.32265625 185.59101563 20 185 C21.45212891 183.84177734 21.45212891 183.84177734 22.93359375 182.66015625 C35.80524461 171.91563441 44.86994977 153.48428032 47 137 C48.83736604 114.28822587 44.6556812 92.83384203 29.73828125 74.9921875 C28.87783203 74.00605469 28.87783203 74.00605469 28 73 C27.22527344 72.030625 26.45054687 71.06125 25.65234375 70.0625 C14.97915336 57.28188987 -3.51690407 47.73064106 -20 46 C-44.02621559 44.44892373 -65.47927148 48.83975648 -84 65 Z " fill="#000000" transform="translate(288,131)"></path>
    <path d="M0 0 C4.71372937 2.63856166 6.99572627 6.2996788 8.6875 11.375 C9.2510668 17.06485711 9.01546433 21.54408403 5.6875 26.375 C1.32083154 30.77263774 -2.18928363 33.47580225 -8.5625 33.6875 C-14.16711745 33.60561436 -17.86458053 31.80389418 -21.8203125 27.87890625 C-25.87172164 23.23714892 -26.625361 19.59414507 -26.51953125 13.6484375 C-25.96509493 7.56009905 -22.47205236 4.28462599 -18.03125 0.57421875 C-12.76751013 -3.09843611 -5.62689971 -2.53948095 0 0 Z " fill="#000000" transform="translate(402.3125,102.625)"></path>
  </symbol>
<!-- </svg> -->

<!-- <svg width="0" height="0" class="hidden"> -->
  <symbol version="1.1" xmlns="http://www.w3.org/2000/svg" viewBox="0 0 512 512" id="fb">
    <path d="M0 0 C1.4951386 -0.00461931 2.99027264 -0.01097909 4.48539734 -0.01890898 C8.55842348 -0.03548426 12.63107091 -0.02741029 16.70409775 -0.0149641 C21.11045545 -0.00586715 25.51675065 -0.01990625 29.9230957 -0.03088379 C38.54111096 -0.04862426 47.15898648 -0.04484902 55.7770071 -0.03323323 C62.78412963 -0.02418153 69.79121314 -0.0229824 76.79833984 -0.02732849 C77.79750585 -0.02794142 78.79667185 -0.02855436 79.82611561 -0.02918586 C81.85621517 -0.03046483 83.88631472 -0.03176168 85.91641426 -0.03307623 C104.93061966 -0.04446893 123.94474778 -0.0313889 142.95894051 -0.00987476 C159.25651985 0.00799502 175.55398521 0.00489054 191.8515625 -0.0135498 C210.80002212 -0.03497968 229.7484141 -0.04337041 248.69688416 -0.03110075 C250.71930948 -0.02982662 252.74173481 -0.02856914 254.76416016 -0.02732849 C255.75910398 -0.02671139 256.75404779 -0.02609429 257.77914143 -0.02545848 C264.77383873 -0.02201194 271.76849296 -0.02781891 278.76318359 -0.0372467 C287.29313305 -0.04849161 295.82293537 -0.04537438 304.35286808 -0.02412373 C308.70087337 -0.01364677 313.04863376 -0.00943389 317.39663696 -0.02272034 C321.38401372 -0.03472008 325.37092069 -0.02795828 329.35825539 -0.00681013 C330.79348097 -0.00237592 332.22874701 -0.00453791 333.66394615 -0.01431328 C349.82325679 -0.11585439 363.10911153 4.09094114 375.03125 15.25793457 C386.88351796 27.91168786 390.40493193 41.73289737 390.28918457 58.72668457 C390.29380388 60.22182317 390.30016366 61.71695721 390.30809355 63.21208191 C390.32466883 67.28510805 390.31659486 71.35775548 390.30414867 75.43078232 C390.29505172 79.83714002 390.30909082 84.24343522 390.32006836 88.64978027 C390.33780883 97.26779553 390.33403359 105.88567105 390.3224178 114.50369167 C390.3133661 121.5108142 390.31216697 128.51789771 390.31651306 135.52502441 C390.31712599 136.52419042 390.31773893 137.52335642 390.31837043 138.55280018 C390.3196494 140.58289974 390.32094625 142.61299929 390.3222608 144.64309883 C390.3336535 163.65730423 390.32057347 182.67143235 390.29905933 201.68562508 C390.28118955 217.98320442 390.28429403 234.28066978 390.30273438 250.57824707 C390.32416425 269.52670669 390.33255498 288.47509868 390.32028532 307.42356873 C390.31901119 309.44599405 390.31775371 311.46841938 390.31651306 313.49084473 C390.31558741 314.98326046 390.31558741 314.98326046 390.31464306 316.505826 C390.31119651 323.5005233 390.31700348 330.49517753 390.32643127 337.48986816 C390.33767618 346.01981763 390.33455895 354.54961994 390.3133083 363.07955265 C390.30283134 367.42755794 390.29861846 371.77531833 390.31190491 376.12332153 C390.32390465 380.11069829 390.31714285 384.09760527 390.2959947 388.08493996 C390.29156049 389.52016554 390.29372248 390.95543158 390.30349785 392.39063072 C390.40527069 408.58681948 386.19646051 421.94547212 374.90625 433.82043457 C366.17260769 442.01765355 354.78070292 448.56867948 342.49952698 448.66183472 C341.65142456 448.67043518 340.80332214 448.67903564 339.92951965 448.68789673 C338.54623726 448.69428665 338.54623726 448.69428665 337.13500977 448.70080566 C336.1573465 448.70898315 335.17968323 448.71716064 334.1723938 448.72558594 C330.93915415 448.75038721 327.70595812 448.76693915 324.47265625 448.78137207 C323.3682765 448.78669575 322.26389675 448.79201942 321.12605095 448.79750443 C315.284806 448.82420824 309.44358227 448.8435953 303.60229492 448.85803223 C298.76486393 448.8713935 293.92785256 448.89929075 289.09057617 448.94006348 C283.25041133 448.98928855 277.41062828 449.01414028 271.57026482 449.02125931 C269.34427662 449.02798378 267.11829734 449.04323666 264.89242744 449.06715012 C261.78012483 449.09868951 258.66930453 449.09885544 255.55688477 449.09143066 C254.63672073 449.107836 253.7165567 449.12424133 252.76850891 449.1411438 C248.28517487 449.09731543 246.38660906 448.97438693 242.73277283 446.15896606 C239.67596596 442.00646979 239.65180633 438.91975463 239.63407898 433.88554382 C239.62856395 432.87124447 239.62856395 432.87124447 239.6229375 431.83645421 C239.61190544 429.56572581 239.60805766 427.29504318 239.60424805 425.02429199 C239.5979831 423.39813593 239.59133627 421.77198131 239.58433533 420.14582825 C239.56329856 414.80169674 239.5529342 409.45756495 239.54296875 404.11340332 C239.53892123 402.27384234 239.53480431 400.43428151 239.53061867 398.59472084 C239.51156887 389.95350171 239.49733666 381.31229111 239.4890067 372.67105502 C239.47923069 362.69440563 239.45290085 352.71797789 239.41250581 342.74140662 C239.38235663 335.03091085 239.36753901 327.32047867 239.36422569 319.60992509 C239.36187407 315.00423081 239.35289902 310.3987734 239.32776451 305.79314232 C239.30449931 301.46009264 239.30024421 297.12743606 239.31052589 292.79434013 C239.31102173 291.20525048 239.30468729 289.61614158 239.29096985 288.02711105 C239.27326756 285.85469543 239.2803471 283.68369316 239.29350281 281.51127625 C239.29111445 280.29656238 239.2887261 279.08184851 239.28626537 277.83032513 C239.95960878 273.31077104 241.89860385 270.01178843 245.48730469 267.1451416 C249.120204 266.1360029 252.74631775 266.26501741 256.484375 266.31262207 C257.32216492 266.31545197 258.15995483 266.31828186 259.02313232 266.32119751 C261.69265163 266.33237108 264.3618325 266.35747036 267.03125 266.38293457 C268.84374515 266.39296803 270.65624556 266.40209324 272.46875 266.41027832 C276.90637993 266.43230117 281.34375763 266.46681153 285.78125 266.50793457 C285.89290497 265.90397858 286.00455994 265.30002258 286.11959839 264.67776489 C287.30996473 258.46188963 288.83490935 252.41867814 290.6015625 246.34387207 C290.86508514 245.42578766 291.12860779 244.50770325 291.40011597 243.5617981 C292.23173521 240.66774587 293.06888874 237.77532999 293.90625 234.88293457 C294.47562925 232.90517613 295.04464302 230.92731244 295.61328125 228.94934082 C296.99838674 224.13431295 298.38845336 219.32074306 299.78125 214.50793457 C299.14311371 214.51681702 298.50497742 214.52569946 297.84750366 214.53485107 C291.19644135 214.62345203 284.54554713 214.68372201 277.89404297 214.72766113 C275.41285389 214.74775698 272.93171205 214.77503841 270.45068359 214.80969238 C266.88106618 214.85829751 263.31207584 214.88092429 259.7421875 214.89855957 C258.63571869 214.91920471 257.52924988 214.93984985 256.38925171 214.96112061 C250.23381842 214.96290771 246.36752122 214.80126467 241.78125 210.50793457 C240.1204756 207.73896186 239.52817026 205.67896888 239.5065918 202.46472168 C239.49705978 201.67967758 239.48752777 200.89463348 239.47770691 200.08580017 C239.47907402 198.82329185 239.47907402 198.82329185 239.48046875 197.53527832 C239.47618362 196.65698868 239.4718985 195.77869904 239.46748352 194.87379456 C239.46174402 193.0136501 239.46123717 191.15348321 239.46557617 189.29333496 C239.46871181 186.47969954 239.44535775 183.66714131 239.41992188 180.8536377 C239.36297945 164.90310766 241.49195545 151.61465727 252.62890625 139.42980957 C260.74218697 132.18528305 270.16511272 128.21938404 281.02734375 128.31262207 C282.2280249 128.31761719 283.42870605 128.3226123 284.66577148 128.32775879 C286.91949585 128.3550708 286.91949585 128.3550708 289.21875 128.38293457 C294.024375 128.42418457 298.83 128.46543457 303.78125 128.50793457 C303.78125 111.01793457 303.78125 93.52793457 303.78125 75.50793457 C291.73024493 75.57006582 291.73024493 75.57006582 279.6796875 75.66809082 C274.75162638 75.7161049 269.82377894 75.76026765 264.89550781 75.77893066 C260.91407363 75.79427835 256.93320556 75.82903435 252.95202637 75.87624359 C251.44695 75.89087361 249.94179273 75.89896478 248.43664551 75.89981842 C228.1641555 75.92283979 209.66323354 80.94648606 194.78125 95.50793457 C181.63690188 110.85048426 177.14806451 128.1533759 177.2953949 147.93648338 C177.31301199 150.3716746 177.30496788 152.80571596 177.2911377 155.24092102 C177.26612362 160.39250966 177.27126297 165.54381026 177.28125 170.69543457 C177.2928177 176.71147595 177.29164108 182.72694516 177.25718689 188.7429142 C177.25012206 191.13458057 177.26671303 193.5253228 177.28430176 195.91691589 C177.27859598 197.38109837 177.27177972 198.84527709 177.26367188 200.30944824 C177.26685425 201.58245285 177.27003662 202.85545746 177.27331543 204.16703796 C176.68911985 208.13345567 175.62234819 209.72411533 172.78125 212.50793457 C169.87529964 214.42947155 167.64623629 214.75436708 164.19628906 214.73498535 C163.28314941 214.73474365 162.37000977 214.73450195 161.42919922 214.73425293 C160.47803223 214.724021 159.52686523 214.71378906 158.546875 214.70324707 C157.22598877 214.70022583 157.22598877 214.70022583 155.87841797 214.69714355 C152.59597549 214.68669711 149.31360739 214.6587745 146.03125 214.63293457 C138.68875 214.59168457 131.34625 214.55043457 123.78125 214.50793457 C123.78125 231.66793457 123.78125 248.82793457 123.78125 266.50793457 C138.32085747 266.34990366 138.32085747 266.34990366 152.85986328 266.14758301 C154.69042018 266.13589423 156.52098752 266.12570285 158.3515625 266.11730957 C159.29249756 266.0968457 160.23343262 266.07638184 161.20288086 266.05529785 C166.90937667 266.05227614 170.30680843 266.59445458 174.78125 270.50793457 C177.21031781 274.15153629 177.03682816 275.86441099 177.04867554 280.20625305 C177.05320665 280.89061973 177.05773776 281.5749864 177.06240618 282.28009146 C177.07508941 284.57851947 177.07342731 286.87671172 177.07177734 289.1751709 C177.07776022 290.82103277 177.08456521 292.46689184 177.09213257 294.11274719 C177.10982593 298.58805125 177.11448939 303.06327886 177.11576414 307.53861451 C177.11766191 311.27365609 177.12501816 315.0086798 177.13210833 318.74371451 C177.14840314 327.5564878 177.15327635 336.36922022 177.15185547 345.18200684 C177.15065425 354.27348513 177.17174965 363.36472595 177.2033428 372.45614415 C177.22949568 380.26006685 177.24022316 388.06391195 177.23894465 395.86787814 C177.23843465 400.5294486 177.24413828 405.19080815 177.26530075 409.85233498 C177.28466613 414.23793131 177.28481936 418.62311523 177.27026749 423.00872612 C177.26817605 424.61715929 177.27290025 426.22561816 177.2849884 427.83400726 C177.30044094 430.03271066 177.29113459 432.22999208 177.27572632 434.42866516 C177.27681585 435.65812772 177.27790539 436.88759027 177.27902794 438.15430927 C176.68238777 442.17398835 175.29998563 444.35659634 172.78125 447.50793457 C169.81534116 448.99088899 166.79879675 448.65233928 163.54675293 448.64837646 C162.792559 448.65134759 162.03836507 448.65431871 161.26131678 448.65737987 C158.72042407 448.66608872 156.17957835 448.66757699 153.63867188 448.66906738 C151.82211201 448.67369422 150.00555311 448.6787187 148.18899536 448.68411255 C143.24231949 448.69725639 138.29565721 448.70368602 133.3489666 448.70812321 C130.25765169 448.71105232 127.1663405 448.71515694 124.07502747 448.71962738 C114.40116184 448.73331102 104.72730471 448.74297195 95.05343008 448.74682927 C83.89111665 448.75130444 72.72892601 448.76882357 61.56664991 448.79782987 C52.93807205 448.81947207 44.30952865 448.829535 35.68092394 448.83087039 C30.52852189 448.83191712 25.37623513 448.83779611 20.22386169 448.85569 C15.37131624 448.87221326 10.51897217 448.87430554 5.66640854 448.86555099 C3.89033848 448.86478275 2.11425742 448.86909522 0.33821487 448.87900925 C-8.56001249 448.92574441 -16.83859079 448.92866742 -25.21875 445.50793457 C-26.12367187 445.17793457 -27.02859375 444.84793457 -27.9609375 444.50793457 C-40.67362461 438.54740728 -50.62673657 427.77991386 -55.53125 414.69543457 C-57.3412349 409.40294707 -58.34376135 405.01508086 -58.35017776 399.39018822 C-58.35401891 398.12740181 -58.35786005 396.86461541 -58.3618176 395.56356275 C-58.36103735 394.15947106 -58.36015857 392.75537942 -58.35919189 391.35128784 C-58.36177553 389.86178403 -58.36478868 388.37228092 -58.3681953 386.88277876 C-58.37626893 382.7837491 -58.37805507 378.68473695 -58.37879276 374.58570027 C-58.38064271 370.16699201 -58.38818981 365.74829285 -58.39492798 361.32958984 C-58.40851494 351.66417551 -58.41453673 341.99876532 -58.41893864 332.33334303 C-58.42170074 326.29820257 -58.42593807 320.26306372 -58.43044281 314.22792435 C-58.44263651 297.51885516 -58.45293526 280.80978727 -58.4563179 264.10071373 C-58.45653747 263.03109456 -58.45675703 261.96147539 -58.45698325 260.85944352 C-58.45720153 259.78725934 -58.45741981 258.71507517 -58.4576447 257.61040056 C-58.45808817 255.43773611 -58.45853473 253.26507167 -58.45898438 251.09240723 C-58.4592058 250.01468979 -58.45942723 248.93697235 -58.45965537 247.82659681 C-58.46360256 230.36749951 -58.4810537 212.90844397 -58.5043439 195.4493628 C-58.52806184 177.52492952 -58.54051997 159.60051718 -58.54168582 141.67606795 C-58.54260239 131.61198823 -58.5483501 121.5479629 -58.56650543 111.48389816 C-58.58191246 102.91305583 -58.58702336 94.34228469 -58.57876733 85.77143113 C-58.57486282 81.39958556 -58.57578068 77.02788335 -58.58982468 72.65605545 C-58.60257558 68.65005925 -58.60135569 64.64431393 -58.58923396 60.63831802 C-58.58727901 59.19277557 -58.59034608 57.74721529 -58.59907833 56.30169789 C-58.64506605 48.17108989 -58.14514087 41.13332121 -55.21875 33.50793457 C-54.72375 32.15055176 -54.72375 32.15055176 -54.21875 30.76574707 C-48.45846134 18.48013141 -37.93816888 8.41916308 -25.36071777 3.3578229 C-16.80768161 0.53064253 -8.95270108 -0.06097826 0 0 Z " fill="#000000" transform="translate(90.21875,31.4920654296875)"></path>
  </symbol>
<!-- </svg> -->
<!-- <svg width="0" height="0" class="hidden"> -->
  <symbol version="1.1" xmlns="http://www.w3.org/2000/svg" viewBox="0 0 512 512" id="youtube">
    <path d="M0 0 C1.08660919 0.00011959 2.17321838 0.00023918 3.29275513 0.0003624 C123.73365579 0.01707633 123.73365579 0.01707633 175.625 7.125 C176.69266602 7.27050293 177.76033203 7.41600586 178.86035156 7.56591797 C196.83640805 10.31735519 212.42262398 17.84310889 223.671875 32.3984375 C239.56031866 55.08713505 240.02920562 87.45271357 241.625 114.1875 C241.66736786 114.83154785 241.70973572 115.4755957 241.75338745 116.13916016 C242.85175924 133.01625812 242.8260737 149.90779576 242.8125 166.8125 C242.81223312 167.55653076 242.81196625 168.30056152 242.81169128 169.06713867 C242.80174312 191.15858981 242.73776462 213.17439807 240.625 235.1875 C240.5571228 235.90583008 240.48924561 236.62416016 240.41931152 237.36425781 C234.68528266 297.67631403 234.68528266 297.67631403 214.625 315.1875 C187.34190277 336.57955452 145.44392174 333.82764493 112.375 335.3125 C111.53166107 335.35102081 110.68832214 335.38954163 109.81942749 335.42922974 C74.812762 336.99529158 39.78700827 337.39373101 4.75 337.375 C3.25131378 337.37482061 3.25131378 337.37482061 1.72235107 337.3746376 C-186.811284 337.34624625 -186.811284 337.34624625 -214.34765625 310.24609375 C-249.92052874 271.54593577 -239.7333577 181.93767269 -237.68841553 132.87313843 C-233.84323705 45.13391923 -233.84323705 45.13391923 -210.828125 23.25390625 C-201.52957672 15.42121192 -191.0171959 10.20457819 -179.0625 8.125 C-178.13066895 7.9614502 -177.19883789 7.79790039 -176.23876953 7.62939453 C-153.90420788 3.97995635 -131.0747374 3.10414556 -108.5 2.0625 C-107.25751495 2.00458282 -107.25751495 2.00458282 -105.9899292 1.94549561 C-99.45310024 1.64754779 -92.91490477 1.40693433 -86.375 1.1875 C-85.08740784 1.14406464 -83.79981567 1.10062927 -82.47320557 1.05587769 C-54.98330831 0.1497347 -27.50310506 -0.01347071 0 0 Z M-45.375 98.1875 C-45.375 144.7175 -45.375 191.2475 -45.375 239.1875 C-41.52609578 237.64793831 -38.17546977 236.06296331 -34.578125 234.0625 C-33.4636499 233.44375 -32.3491748 232.825 -31.20092773 232.1875 C-30.00881662 231.52107513 -28.8168437 230.854403 -27.625 230.1875 C-27.0169754 229.84847656 -26.40895081 229.50945312 -25.78250122 229.16015625 C-17.40038903 224.48635674 -9.07872376 219.72274131 -0.828125 214.8203125 C17.40434313 204.00058234 35.88732833 193.59195271 54.30126953 183.08447266 C59.49373172 180.12094752 64.68433462 177.15417076 69.875 174.1875 C71.58853216 173.2083167 73.30207275 172.22914814 75.015625 171.25 C75.71719727 170.84910156 76.41876953 170.44820313 77.14160156 170.03515625 C77.87588379 169.61556641 77.87588379 169.61556641 78.625 169.1875 C75.69524778 166.8999904 72.68499635 164.98771208 69.4609375 163.140625 C68.43484375 162.55087891 67.40875 161.96113281 66.3515625 161.35351562 C65.24554688 160.72123047 64.13953125 160.08894531 63 159.4375 C61.83317378 158.76785607 60.66650991 158.09792916 59.5 157.42773438 C57.07712488 156.03601231 54.65355654 154.64550896 52.22949219 153.25585938 C46.68809957 150.0777896 41.15712092 146.88167137 35.625 143.6875 C33.45576703 142.43613229 31.28649608 141.1848304 29.1171875 139.93359375 C24.80898349 137.44819098 20.50177211 134.96108023 16.1953125 132.47265625 C3.58768569 125.18969317 -9.03706589 117.93791699 -21.68701172 110.72875977 C-22.77771973 110.10670654 -23.86842773 109.48465332 -24.9921875 108.84375 C-26.04631836 108.24304688 -27.10044922 107.64234375 -28.18652344 107.0234375 C-32.48976152 104.54561588 -36.75573034 102.00579969 -41.01611328 99.45507812 C-43.22230974 98.02971687 -43.22230974 98.02971687 -45.375 98.1875 Z " fill="#000000" transform="translate(253.375,82.8125)"></path>
  </symbol>
<!-- </svg> -->
<!-- <svg width="0" height="0" class="hidden"> -->
  <symbol version="1.1" xmlns="http://www.w3.org/2000/svg" viewBox="0 0 512 512" id="twitter">
    <path d="M0 0 C1.01790619 0.00215515 2.03581238 0.0043103 3.08456421 0.00653076 C17.69363523 0.05620146 32.02575853 0.30709809 46.375 3.3125 C47.34985352 3.51117676 48.32470703 3.70985352 49.32910156 3.91455078 C97.7109774 14.03517194 141.69928269 35.9516877 177.375 70.3125 C178.3640332 71.26068604 178.3640332 71.26068604 179.37304688 72.22802734 C188.86130305 81.37247479 197.6012044 90.66984009 205.375 101.3125 C206.23306152 102.46355017 207.09113451 103.61459177 207.94921875 104.765625 C213.98736829 112.95680614 219.34595521 121.47054105 224.375 130.3125 C224.73948242 130.94430176 225.10396484 131.57610352 225.47949219 132.22705078 C247.08534998 169.97532572 256.85198095 212.74189997 256.6875 255.9375 C256.68534485 256.95540619 256.6831897 257.97331238 256.68096924 259.02206421 C256.63129854 273.63113523 256.38040191 287.96325853 253.375 302.3125 C253.07698486 303.77478027 253.07698486 303.77478027 252.77294922 305.26660156 C242.65232806 353.6484774 220.7358123 397.63678269 186.375 433.3125 C185.74287598 433.97185547 185.11075195 434.63121094 184.45947266 435.31054688 C175.31502521 444.79880305 166.01765991 453.5387044 155.375 461.3125 C154.22394983 462.17056152 153.07290823 463.02863451 151.921875 463.88671875 C143.73224019 469.92427396 135.22961724 475.30707302 126.375 480.3125 C125.66778809 480.7146875 124.96057617 481.116875 124.23193359 481.53125 C101.09654164 494.5566741 75.92537591 503.30551461 49.9375 508.625 C49.21860596 508.77235596 48.49971191 508.91971191 47.7590332 509.0715332 C33.08339502 511.86090125 18.55831162 512.66142619 3.64770508 512.62817383 C0.70811513 512.6250221 -2.2304558 512.64854926 -5.16992188 512.67382812 C-18.54306192 512.71848737 -31.43916711 511.51301542 -44.625 509.3125 C-46.33055054 509.03031616 -46.33055054 509.03031616 -48.07055664 508.74243164 C-91.33802759 500.97044532 -132.38793216 480.98345309 -165.625 452.3125 C-166.37007813 451.67828125 -167.11515625 451.0440625 -167.8828125 450.390625 C-181.38779833 438.57948485 -194.05918743 425.82889772 -204.625 411.3125 C-205.48149066 410.16255169 -206.33826433 409.01281411 -207.1953125 407.86328125 C-213.23534209 399.67315742 -218.61867614 391.16870382 -223.625 382.3125 C-224.0271875 381.60528809 -224.429375 380.89807617 -224.84375 380.16943359 C-237.8691741 357.03404164 -246.61801461 331.86287591 -251.9375 305.875 C-252.08485596 305.15610596 -252.23221191 304.43721191 -252.3840332 303.6965332 C-255.35789088 288.05024391 -255.99800362 272.57681954 -255.9375 256.6875 C-255.93534485 255.66959381 -255.9331897 254.65168762 -255.93096924 253.60293579 C-255.88129854 238.99386477 -255.63040191 224.66174147 -252.625 210.3125 C-252.42632324 209.33764648 -252.22764648 208.36279297 -252.02294922 207.35839844 C-241.90232806 158.9765226 -219.9858123 114.98821731 -185.625 79.3125 C-184.99287598 78.65314453 -184.36075195 77.99378906 -183.70947266 77.31445312 C-174.56502521 67.82619695 -165.26765991 59.0862956 -154.625 51.3125 C-153.47394983 50.45443848 -152.32290823 49.59636549 -151.171875 48.73828125 C-142.98224019 42.70072604 -134.47961724 37.31792698 -125.625 32.3125 C-124.91778809 31.9103125 -124.21057617 31.508125 -123.48193359 31.09375 C-100.34654164 18.0683259 -75.17537591 9.31948539 -49.1875 4 C-48.46860596 3.85264404 -47.74971191 3.70528809 -47.0090332 3.5534668 C-31.36274391 0.57960912 -15.88931954 -0.06050362 0 0 Z " fill="#000000" transform="translate(255.625,-0.3125)"></path>
    <path d="M0 0 C11.30006783 -0.34842938 22.59884773 -0.61449683 33.90320396 -0.77718258 C39.15338952 -0.85529267 44.39988697 -0.96109377 49.64794922 -1.1315918 C54.71873385 -1.29528846 59.78598728 -1.38439541 64.85921097 -1.42315865 C66.78852588 -1.45075557 68.71765913 -1.5046596 70.64545822 -1.58595085 C85.34986797 -2.18101339 85.34986797 -2.18101339 89.77689552 1.46235466 C92.89382392 5.01843936 95.0815425 8.9585474 97.11096954 13.20852184 C98.32585991 15.65663769 99.84480428 17.84007893 101.43359375 20.05859375 C101.93133301 20.78522217 102.42907227 21.51185059 102.94189453 22.26049805 C103.43544434 22.97890869 103.92899414 23.69731934 104.4375 24.4375 C104.9826123 25.23260986 105.52772461 26.02771973 106.08935547 26.84692383 C107.72508974 29.23207254 109.3622806 31.61621402 111 34 C111.48645996 34.70833984 111.97291992 35.41667969 112.47412109 36.14648438 C115.19993316 40.11507076 117.92800524 44.08209746 120.65722656 48.04833984 C122.93908519 51.36491764 125.21945755 54.6825171 127.5 58 C128.41665976 59.33333808 129.33332642 60.66667142 130.25 62 C132.08333333 64.66666667 133.91666667 67.33333333 135.75 70 C136.2039917 70.66032227 136.6579834 71.32064453 137.12573242 72.00097656 C138.04006826 73.33097867 138.95429398 74.6610565 139.8684082 75.99121094 C142.19482773 79.37614927 144.52329465 82.75964843 146.85546875 86.140625 C152.30711384 94.04854686 157.70347796 101.98692367 163 110 C170.76762167 102.3150126 177.92532375 94.18303472 184.78515625 85.68359375 C187.66480887 82.19449084 190.70693876 78.87003079 193.75390625 75.52734375 C196.06187598 72.93037607 198.25555863 70.26595987 200.4375 67.5625 C204.29708603 62.79003797 208.37199991 58.26890891 212.52734375 53.75390625 C215.74709519 50.16792716 218.75905176 46.43298508 221.78515625 42.68359375 C224.66480887 39.19449084 227.70693876 35.87003079 230.75390625 32.52734375 C233.06187598 29.93037607 235.25555863 27.26595987 237.4375 24.5625 C241.29020913 19.79376212 245.34995241 15.2719413 249.54296875 10.80078125 C251.96152419 8.24239275 251.96152419 8.24239275 253.16503906 5.90576172 C254.60063667 3.46869727 255.79754069 1.78958197 258 0 C262.49386085 -0.98612665 266.80217576 -0.7576239 271.375 -0.5 C273.19451172 -0.44585937 273.19451172 -0.44585937 275.05078125 -0.390625 C278.03710076 -0.29656769 281.01691402 -0.16526792 284 0 C282.73735096 2.7153387 281.39649574 4.9004586 279.41796875 7.14453125 C278.64827759 8.02443726 278.64827759 8.02443726 277.86303711 8.92211914 C277.03364624 9.85785767 277.03364624 9.85785767 276.1875 10.8125 C275.00511024 12.16137235 273.82282138 13.51033316 272.640625 14.859375 C272.03541016 15.54708984 271.43019531 16.23480469 270.80664062 16.94335938 C268.00164201 20.13650914 265.21940761 23.34923664 262.4375 26.5625 C261.9002832 27.1822168 261.36306641 27.80193359 260.80957031 28.44042969 C255.17997559 34.93768019 249.5883842 41.46730798 244 48 C237.31098326 55.81930603 230.60251244 63.62065546 223.85791016 71.39208984 C218.70838251 77.32888478 213.59299766 83.29453455 208.48388672 89.26611328 C205.49513644 92.75839766 202.50256972 96.24741253 199.51074219 99.73706055 C196.94732637 102.72729265 194.38490898 105.71837083 191.82421875 108.7109375 C186.58169828 114.83584638 181.33301115 120.95341693 176 127 C177.75600102 130.83472656 180.08831458 134.26269428 182.4375 137.75 C182.87779541 138.40685791 183.31809082 139.06371582 183.77172852 139.74047852 C188.33082506 146.52485795 192.96472735 153.25758235 197.60888672 159.98388672 C199.91044181 163.31948552 202.20489606 166.65996073 204.5 170 C205.41922941 171.33726806 206.33850022 172.67450766 207.2578125 174.01171875 C207.71188477 174.67220215 208.16595703 175.33268555 208.63378906 176.01318359 C209.98204663 177.97389125 211.33079868 179.93425783 212.6796875 181.89453125 C218.18518464 189.89670733 223.67634388 197.90854995 229.15917969 205.92626953 C233.98034499 212.97489904 238.81630573 220.013269 243.65722656 227.04833984 C245.93908519 230.36491764 248.21945755 233.6825171 250.5 237 C251.41665976 238.33333808 252.33332642 239.66667142 253.25 241 C258.75 249 264.25 257 269.75 265 C270.2042334 265.66064453 270.6584668 266.32128906 271.12646484 267.00195312 C272.03846998 268.32862395 272.95025566 269.65544567 273.86181641 270.98242188 C276.22298102 274.41899349 278.58847875 277.85246371 280.9609375 281.28125 C281.44884766 281.98765625 281.93675781 282.6940625 282.43945312 283.421875 C283.36119257 284.75620258 284.28425639 286.08961682 285.20898438 287.421875 C287.43511663 290.64756436 289.58662887 293.90402758 291.65673828 297.23242188 C292.09817169 297.94136597 292.5396051 298.65031006 292.99441528 299.3807373 C293.32625824 299.91509399 293.6581012 300.44945068 294 301 C282.73476484 301.39529454 271.47119787 301.696624 260.20042038 301.88080692 C254.96541875 301.96925111 249.73518568 302.08898346 244.50292969 302.2824707 C239.4449993 302.46832326 234.39162627 302.56904191 229.33054352 302.61291313 C227.40829927 302.64413457 225.48628321 302.70512127 223.56600189 302.79741096 C208.94542885 303.47160789 208.94542885 303.47160789 204.0263195 299.34381866 C200.40920843 295.29183857 197.6838625 290.8056329 195.11892891 286.0360527 C193.60602752 283.28311018 191.82796276 280.74945668 190.00390625 278.1953125 C188.85535449 276.50617053 187.70820401 274.81607483 186.5625 273.125 C185.287897 271.24990715 184.01315482 269.3749089 182.73828125 267.5 C182.1138916 266.58089844 181.48950195 265.66179687 180.84619141 264.71484375 C177.98867408 260.51283467 175.12021498 256.31834238 172.25 252.125 C171.71785889 251.34745361 171.18571777 250.56990723 170.63745117 249.76879883 C165.8821013 242.82318601 161.11443189 235.88607542 156.34277344 228.95166016 C153.60575245 224.97352456 150.8705437 220.9941423 148.13549805 217.01464844 C145.78368067 213.5930589 143.43027698 210.17257726 141.07421875 206.75390625 C140.11196815 205.35677842 139.14972838 203.95964313 138.1875 202.5625 C137.72738525 201.89532959 137.26727051 201.22815918 136.79321289 200.54077148 C133.83269084 196.23941179 130.93447443 191.90346595 128.12109375 187.50390625 C127.05688952 185.84102003 127.05688952 185.84102003 125 185 C124.76410156 185.55558594 124.52820313 186.11117187 124.28515625 186.68359375 C122.6872248 189.56375591 120.694995 191.66369076 118.4375 194.0625 C114.96608181 197.79595956 111.6408372 201.59216657 108.4375 205.5625 C105.55151207 209.13828469 102.59555196 212.60401318 99.5 216 C96.38541332 219.41739372 93.4081338 222.9052235 90.5 226.5 C86.88850866 230.96420457 83.11339306 235.23002114 79.24609375 239.47265625 C76.93812402 242.06962393 74.74444137 244.73404013 72.5625 247.4375 C68.70291397 252.20996203 64.62800009 256.73109109 60.47265625 261.24609375 C57.25290481 264.83207284 54.24094824 268.56701492 51.21484375 272.31640625 C48.341629 275.79770877 45.3071448 279.11524512 42.265625 282.44921875 C39.09653562 286.01717628 36.1159006 289.72691721 33.140625 293.45703125 C32.43421875 294.29621094 31.7278125 295.13539063 31 296 C30.35160156 296.92554688 29.70320313 297.85109375 29.03515625 298.8046875 C24.1416514 302.34413374 19.0514946 301.52603482 13.1875 301.3125 C12.01767578 301.28994141 10.84785156 301.26738281 9.64257812 301.24414062 C6.76041231 301.18532091 3.88086319 301.10317141 1 301 C2.61817175 297.59170063 4.47765964 295.20469242 7.0625 292.4375 C10.33018473 288.87703072 13.46479193 285.2606708 16.5 281.5 C20.11149134 277.03579543 23.88660694 272.76997886 27.75390625 268.52734375 C30.06187598 265.93037607 32.25555863 263.26595987 34.4375 260.5625 C38.29708603 255.79003797 42.37199991 251.26890891 46.52734375 246.75390625 C49.74709519 243.16792716 52.75905176 239.43298508 55.78515625 235.68359375 C58.66480887 232.19449084 61.70693876 228.87003079 64.75390625 225.52734375 C67.06187598 222.93037607 69.25555863 220.26595987 71.4375 217.5625 C75.29708603 212.79003797 79.37199991 208.26890891 83.52734375 203.75390625 C86.74709519 200.16792716 89.75905176 196.43298508 92.78515625 192.68359375 C94.95632827 190.05291443 97.20241357 187.52057576 99.5 185 C101.00249157 183.33557912 102.50240187 181.66882522 104 180 C104.85851562 179.04480469 105.71703125 178.08960938 106.6015625 177.10546875 C107.43429688 176.14253906 108.26703125 175.17960938 109.125 174.1875 C109.89070313 173.31480469 110.65640625 172.44210937 111.4453125 171.54296875 C113.23366559 169.13434251 113.23366559 169.13434251 112.9375 166.453125 C111.89571838 163.72712975 110.67004733 161.86653261 108.875 159.5625 C104.63409905 153.92826893 100.64575801 148.14852063 96.6875 142.3125 C95.3737448 140.37887439 94.05994298 138.44528047 92.74609375 136.51171875 C92.10913574 135.57376465 91.47217773 134.63581055 90.81591797 133.66943359 C88.3059188 129.97968757 85.78062547 126.30061918 83.25 122.625 C82.81051025 121.98643066 82.37102051 121.34786133 81.91821289 120.68994141 C81.04620445 119.42324122 80.17405465 118.15663833 79.30175781 116.89013672 C72.46467675 106.96277708 65.64498892 97.02367568 58.84082031 87.07373047 C54.01965501 80.02510096 49.18369427 72.986731 44.34277344 65.95166016 C42.06091481 62.63508236 39.78054245 59.3174829 37.5 56 C36.58334024 54.66666192 35.66667358 53.33332858 34.75 52 C29.25 44 29.25 44 27.87475586 41.99951172 C26.9590688 40.66769197 26.04321622 39.33598602 25.12719727 38.00439453 C22.8191642 34.6488222 20.51414141 31.29125262 18.21484375 27.9296875 C17.28923352 26.57800787 16.36345347 25.22644452 15.4375 23.875 C14.98914795 23.21999512 14.5407959 22.56499023 14.07885742 21.89013672 C11.78432791 18.55045502 9.46137948 15.23584282 7.0859375 11.953125 C6.62002197 11.30875488 6.15410645 10.66438477 5.67407227 10.00048828 C4.78575744 8.77688518 3.89320162 7.55634649 2.99584961 6.33935547 C0 2.21799668 0 2.21799668 0 0 Z " fill="#FBFBFB" transform="translate(109,105)"></path>
    <path d="M0 0 C5.53134376 -0.29847445 11.05793637 -0.51516089 16.59545898 -0.65917969 C18.4748705 -0.71923819 20.35372791 -0.80092379 22.23120117 -0.90527344 C37.74308722 -1.74531186 37.74308722 -1.74531186 43.02319336 2.33789062 C45.36654422 5.44129462 47.1847184 8.56444414 49 12 C50.27052798 13.85077793 51.56552975 15.68503997 52.88671875 17.5 C54.15581154 19.33183482 55.4226902 21.16520532 56.6875 23 C58.08437572 25.01710695 59.48151598 27.03403073 60.87890625 29.05078125 C61.57000488 30.04932129 62.26110352 31.04786133 62.97314453 32.07666016 C66.0099395 36.45663882 69.06608863 40.82295044 72.125 45.1875 C72.69436279 46.00025391 73.26372559 46.81300781 73.8503418 47.65039062 C74.99419264 49.28311796 76.13815369 50.91576808 77.28222656 52.54833984 C80.77500481 57.53334256 84.2646291 62.52055381 87.75488281 67.50732422 C90.64548192 71.63709659 93.53676689 75.7663847 96.4296875 79.89453125 C103.31728062 89.72500507 110.18294378 99.57042296 117.03417969 109.42626953 C123.09800618 118.14686679 129.18658311 126.84996444 135.28222656 135.54833984 C138.1896209 139.69786428 141.09468001 143.84902306 144 148 C145.16665575 149.66667431 146.33332241 151.33334098 147.5 153 C149.83333333 156.33333333 152.16666667 159.66666667 154.5 163 C155.07733887 163.8247583 155.65467773 164.6495166 156.24951172 165.49926758 C157.41784967 167.16834507 158.58614384 168.83745322 159.75439453 170.5065918 C162.64513489 174.63662338 165.53659854 178.76614446 168.4296875 182.89453125 C175.31728062 192.72500507 182.18294378 202.57042296 189.03417969 212.42626953 C193.38764807 218.68714202 197.75120723 224.94081092 202.125 231.1875 C202.68461426 231.98784668 203.24422852 232.78819336 203.82080078 233.61279297 C206.86152078 237.9588062 209.91554537 242.2948758 212.984375 246.62109375 C213.63519043 247.54188721 214.28600586 248.46268066 214.95654297 249.41137695 C216.21212986 251.18738209 217.47143002 252.96076929 218.73486328 254.73120117 C219.29415527 255.52373291 219.85344727 256.31626465 220.4296875 257.1328125 C220.92710449 257.83293457 221.42452148 258.53305664 221.93701172 259.25439453 C223 261 223 261 223 263 C217.6110842 263.29855489 212.22705013 263.51519082 206.83178711 263.65917969 C205.00085579 263.7192261 203.17049285 263.80090323 201.34155273 263.90527344 C186.2307502 264.74544889 186.2307502 264.74544889 181.00366211 260.65551758 C178.66179039 257.55345713 176.82713381 254.42716909 175 251 C173.75208144 249.18493289 172.48061222 247.3857812 171.18359375 245.60546875 C169.9326537 243.80103148 168.68401596 241.99499629 167.4375 240.1875 C166.04301953 238.17444399 164.64848676 236.1614242 163.25390625 234.1484375 C162.19840576 232.62234863 162.19840576 232.62234863 161.12158203 231.06542969 C157.71417485 226.14213803 154.29470209 221.22725609 150.875 216.3125 C150.21185791 215.35907715 149.54871582 214.4056543 148.86547852 213.42333984 C142.83359619 204.75394243 136.7788278 196.10067756 130.71777344 187.45166016 C127.8103791 183.30213572 124.90531999 179.15097694 122 175 C120.83334425 173.33332569 119.66667759 171.66665902 118.5 170 C111.5 160 104.5 150 97.5 140 C96.92266113 139.1752417 96.34532227 138.3504834 95.75048828 137.50073242 C94.58215033 135.83165493 93.41385616 134.16254678 92.24560547 132.4934082 C89.35486511 128.36337662 86.46340146 124.23385554 83.5703125 120.10546875 C76.68271938 110.27499493 69.81705622 100.42957704 62.96582031 90.57373047 C56.90199382 81.85313321 50.81341689 73.15003556 44.71777344 64.45166016 C41.8103791 60.30213572 38.90531999 56.15097694 36 52 C34.83334425 50.33332569 33.66667759 48.66665902 32.5 47 C30.16666667 43.66666667 27.83333333 40.33333333 25.5 37 C24.92145264 36.1735498 24.34290527 35.34709961 23.74682617 34.49560547 C22.59056384 32.84370979 21.43447405 31.19169331 20.27856445 29.53955078 C17.20418081 25.14583648 14.12605461 20.75480076 11.04296875 16.3671875 C10.39779297 15.44808594 9.75261719 14.52898437 9.08789062 13.58203125 C7.8441912 11.81043064 6.59944061 10.03956738 5.35351562 8.26953125 C4.79728516 7.47675781 4.24105469 6.68398437 3.66796875 5.8671875 C3.17578857 5.16706543 2.6836084 4.46694336 2.17651367 3.74560547 C1 2 1 2 0 0 Z " fill="#020202" transform="translate(144,125)"></path>
  </symbol>
<!-- </svg> -->
<!-- <svg width="0" height="0" class="hidden"> -->
  <symbol version="1.1" xmlns="http://www.w3.org/2000/svg" viewBox="0 0 512 512" id="pinterest-logo">
    <path d="M0 0 C1.04172363 0.20399414 2.08344727 0.40798828 3.15673828 0.61816406 C43.64574006 8.81016648 80.42670843 25.61997699 113 51 C113.86625 51.67160156 114.7325 52.34320313 115.625 53.03515625 C127.63072135 62.59328262 139.16531122 73.20885448 149 85 C149.45294434 85.54060059 149.90588867 86.08120117 150.37255859 86.63818359 C157.90629693 95.68015799 164.74711574 105.03061271 171 115 C171.60642334 115.96147949 171.60642334 115.96147949 172.22509766 116.94238281 C205.37888531 170.0042118 219.15223402 237.20989742 207 299 C206.79600586 300.04172363 206.59201172 301.08344727 206.38183594 302.15673828 C198.18983352 342.64574006 181.38002301 379.42670843 156 412 C155.32839844 412.86625 154.65679687 413.7325 153.96484375 414.625 C149.36718833 420.39999896 144.46501928 425.84836866 139.4375 431.25 C138.51783447 432.24241699 138.51783447 432.24241699 137.57958984 433.25488281 C133.29262014 437.81014489 128.75412237 441.94004997 124 446 C123.02417969 446.86882812 122.04835938 447.73765625 121.04296875 448.6328125 C74.8363663 488.96087319 15.52696094 509.21267557 -45.3125 509.25 C-46.29898529 509.25067474 -47.28547058 509.25134949 -48.30184937 509.25204468 C-62.42024919 509.23668564 -76.13365088 508.88264884 -90 506 C-90.99306152 505.80180664 -91.98612305 505.60361328 -93.00927734 505.39941406 C-111.70042558 501.64001275 -111.70042558 501.64001275 -119 499 C-117.63549173 494.27780122 -115.55851552 490.4241272 -112.9375 486.3125 C-105.77764332 474.64820395 -99.87335552 462.50298611 -95.75390625 449.43359375 C-95.46112289 448.50799652 -95.16833954 447.58239929 -94.86668396 446.62875366 C-90.75724569 433.32579158 -87.47169611 419.78969543 -84.10235596 406.28497314 C-83.18854729 402.62880866 -82.26673325 398.97466315 -81.34570312 395.3203125 C-79.55620855 388.21543321 -77.77520655 381.10846441 -76 374 C-75.01 374 -74.02 374 -73 374 C-71.7109375 375.46875 -71.7109375 375.46875 -70.375 377.5 C-64.20429427 386.08137455 -56.44449703 391.46457987 -47 396 C-45.62908203 396.680625 -45.62908203 396.680625 -44.23046875 397.375 C-20.89076891 408.10296053 7.1098407 405.39446291 30.671875 396.734375 C41.56410737 392.48924753 51.73412491 387.15927443 61 380 C61.80566406 379.39671875 62.61132812 378.7934375 63.44140625 378.171875 C97.099531 352.25669913 115.94047043 310.30472885 122 269 C122.2616394 267.28937378 122.2616394 267.28937378 122.52856445 265.54418945 C123.91252534 255.69415065 124.34192662 246.00623802 124.31567383 236.06420898 C124.31250667 233.56775425 124.33611781 231.07248222 124.36132812 228.57617188 C124.41912596 214.2064292 122.6808959 200.40898449 118 186.75 C117.70657715 185.88576416 117.4131543 185.02152832 117.11083984 184.13110352 C110.13514953 164.52237081 99.23524444 148.05977308 85 133 C84.25363281 132.18917969 83.50726563 131.37835938 82.73828125 130.54296875 C72.07246608 119.34827018 59.40087988 111.15002922 45.8046875 103.95947266 C44.21237397 103.11290986 42.63605521 102.23640857 41.0625 101.35546875 C21.2037724 90.66447761 -3.07453681 84.98991664 -25.58203125 84.76171875 C-26.38545456 84.75187958 -27.18887787 84.74204041 -28.01664734 84.73190308 C-81.57405043 84.21221276 -132.39465981 97.41473762 -171.60205078 135.55859375 C-193.45462966 157.52759188 -208.63562737 184.64731307 -215 215 C-215.18546387 215.8760791 -215.37092773 216.7521582 -215.56201172 217.65478516 C-217.19727789 226.25999043 -217.39781422 234.77543288 -217.375 243.5 C-217.37478851 244.24778717 -217.37457703 244.99557434 -217.37435913 245.76602173 C-217.34017916 257.90023404 -216.38584873 269.29002687 -213 281 C-212.81808105 281.66402832 -212.63616211 282.32805664 -212.44873047 283.01220703 C-208.45714729 297.33410737 -202.08079577 310.98469259 -192 322 C-191.39800781 322.69351562 -190.79601562 323.38703125 -190.17578125 324.1015625 C-183.40884765 331.45014029 -172.63437679 339.65684258 -162.375 340.1875 C-159.00822242 340.14891714 -159.00822242 340.14891714 -156 339 C-155.4801689 336.9899864 -154.98689744 334.970494 -154.60546875 332.9296875 C-154.01255839 330.06076642 -153.24517524 327.27318244 -152.43334961 324.45947266 C-149.20378021 313.44517909 -149.20378021 313.44517909 -151.5625 302.5625 C-152.85718259 300.56538324 -154.24961724 298.65633267 -155.6484375 296.73046875 C-170.60900691 275.98819457 -172.27990575 251.12931362 -168.4453125 226.44921875 C-165.8839831 212.36190703 -161.09137965 199.40007022 -154 187 C-153.45730469 186.030625 -152.91460937 185.06125 -152.35546875 184.0625 C-147.51096769 175.95297024 -141.29297853 168.99766685 -135 162 C-134.01580078 160.87078125 -134.01580078 160.87078125 -133.01171875 159.71875 C-112.93033609 137.98989248 -80.85817344 127.2118918 -52 126 C-29.58335538 125.22583452 -6.08689184 127.16731565 14 138 C14.97066406 138.51304687 15.94132812 139.02609375 16.94140625 139.5546875 C38.30195466 151.39437844 53.01155673 170.41844866 60.1875 193.6875 C71.43465383 235.67080298 61.54952414 285.4633833 41 323 C31.01224026 340.0395901 16.23098524 354.93216817 -3.17578125 360.33984375 C-14.9212756 362.36741121 -28.31188318 362.86654783 -39 357 C-39.78246094 356.5875 -40.56492187 356.175 -41.37109375 355.75 C-49.64268532 350.8400502 -55.95799259 343.12602223 -59 334 C-64.31906163 310.6660143 -52.00987723 284.21751221 -45.17675781 262.08447266 C-41.45490338 249.96507287 -37.79533945 237.72543121 -37 225 C-36.92072266 223.948125 -36.92072266 223.948125 -36.83984375 222.875 C-36.41104836 212.43476449 -39.44559161 201.29296111 -46.3125 193.3125 C-55.99509375 184.98096584 -64.11192544 183.09380726 -77 184 C-87.94415814 185.80882614 -97.11731239 192.47469859 -104 201 C-109.41652994 209.11984379 -113.56148586 217.50262914 -116 227 C-116.22429687 227.87140625 -116.44859375 228.7428125 -116.6796875 229.640625 C-120.36421265 247.30615656 -119.27230297 267.70447509 -111.671875 284.14453125 C-109.91581327 291.6077936 -112.49675679 299.90869208 -114.28149414 307.20263672 C-114.51262909 308.17039536 -114.74376404 309.13815399 -114.98190308 310.13523865 C-115.74360811 313.31820637 -116.5144549 316.49888731 -117.28515625 319.6796875 C-117.82572752 321.93312033 -118.36562643 324.18671454 -118.90489197 326.44046021 C-120.32813955 332.38241677 -121.75871995 338.32258111 -123.19140625 344.26226807 C-132.37792923 382.1799806 -132.37792923 382.1799806 -141.17577934 420.18899918 C-141.50558282 421.65437702 -141.837336 423.11931791 -142.17137337 424.58373642 C-144.98685386 436.96033476 -147.20048592 449.39727364 -147.4140625 462.12109375 C-147.43342865 462.87673111 -147.4527948 463.63236847 -147.4727478 464.41090393 C-147.53108146 466.75299892 -147.57832312 469.09514706 -147.625 471.4375 C-147.66331552 473.0553564 -147.70237427 474.67319538 -147.7421875 476.29101562 C-147.83665507 480.1938636 -147.92119936 484.09680558 -148 488 C-172.01735937 480.66927327 -194.57596458 464.74206589 -213 448 C-214.26119089 446.91214814 -215.52295723 445.82496325 -216.78515625 444.73828125 C-228.0816958 434.86414053 -239.02039118 424.04229683 -248 412 C-248.47179687 411.37754395 -248.94359375 410.75508789 -249.4296875 410.11376953 C-280.61996464 368.82738589 -301.93565492 318.49197969 -302.203125 266.12109375 C-302.21018463 265.19976654 -302.21724426 264.27843933 -302.22451782 263.32919312 C-302.45460589 224.4639257 -302.45460589 224.4639257 -299 207 C-298.79600586 205.95972656 -298.59201172 204.91945312 -298.38183594 203.84765625 C-287.38813044 149.5032256 -259.27398259 95.75502813 -216 60 C-215.10667969 59.20722656 -214.21335937 58.41445313 -213.29296875 57.59765625 C-156.75434178 7.69235882 -74.08403833 -14.5700773 0 0 Z " fill="#000000" transform="translate(302,3)"></path>
  </symbol>
</svg>